# xmcd
#
# Track frame offsets:
#   150
#   17121
#   38708
#   60342
#   77913
#   93955
#   117154
#   136341
#   152912
#   170616
#   193649
#   211997
#   233721
#   257110
#   262780
#   276189
#   291783
#   306793
#
# Disc length: 4333 seconds
#
# Revision: 0
# Processed by: cddbd v1.5.2PL0 Copyright (c) Steve Scherf et al.
# Submitted via: GXTranscoder 2.0.1939
#
DISCID=f410eb12
DTITLE=mix - mix
DYEAR=1900
DGENRE=domaca
TTITLE0=sanajm
TTITLE1=ssssss
TTITLE2=ddddddddddd
TTITLE3=ssasasa
TTITLE4=ako odes ti
TTITLE5=andjeli
TTITLE6=100 pijanih noci
TTITLE7=da je samo malo srece
TTITLE8=sdvf
TTITLE9=fasf
TTITLE10=fsadf
TTITLE11=lud za tobom
TTITLE12=moje pjesme stih
TTITLE13=gggggg
TTITLE14=g
TTITLE15=gg
TTITLE16=ggg
TTITLE17=gggg
EXTD=
EXTT0=
EXTT1=
EXTT2=
EXTT3=
EXTT4=
EXTT5=
EXTT6=
EXTT7=
EXTT8=
EXTT9=
EXTT10=
EXTT11=
EXTT12=
EXTT13=
EXTT14=
EXTT15=
EXTT16=
EXTT17=
PLAYORDER=
